<svg width="259" height="61" viewBox="0 0 259 61" fill="none" xmlns="http://www.w3.org/2000/svg">
<g clip-path="url(#clip0_379_1074)">
<path d="M39.1775 20.2732C35.7019 18.2666 34.4566 13.751 36.4873 10.2335C38.494 6.75797 43.0096 5.51263 46.527 7.54342C50.0025 9.55003 51.2479 14.0656 49.2171 17.5831C47.1863 21.1005 42.6949 22.304 39.1775 20.2732Z" fill="white"/>
<path d="M95.2866 32.6094C101.113 22.5177 97.6089 9.43974 87.5172 3.6133C77.3836 -2.23731 64.3475 1.29109 58.5211 11.3828L43.0001 38.266C43.0001 38.266 82.1349 55.3889 95.2866 32.6094Z" fill="white"/>
<path d="M7.39788 30.1124C3.3363 37.1473 5.73677 46.2381 12.7716 50.2996C19.8065 54.3612 28.8554 51.9366 32.917 44.9017L43.7237 26.1839C43.7656 26.2081 16.5364 14.284 7.39788 30.1124ZM18.2113 40.8779C16.3688 39.8142 15.7317 37.4364 16.7954 35.5939C17.8592 33.7514 20.237 33.1143 22.0794 34.1781C23.9219 35.2418 24.559 37.6196 23.4953 39.4621C22.4734 41.3287 20.0956 41.9659 18.2113 40.8779Z" fill="white"/>
<path d="M113.773 36.7147C112.304 35.8887 111.111 34.7872 110.285 33.3186C109.459 31.8501 109 30.2897 109 28.454C109 26.6183 109.459 25.0579 110.285 23.5893C111.111 22.1207 112.304 21.0193 113.773 20.1932C115.241 19.3671 116.894 19 118.821 19C120.29 19 121.666 19.2754 122.951 19.8261C124.237 20.3768 125.246 21.1111 126.072 22.1207L123.869 24.2318C122.584 22.7632 120.932 22.1207 119.005 22.1207C117.72 22.1207 116.618 22.3961 115.609 22.9468C114.599 23.4975 113.865 24.2318 113.314 25.2415C112.763 26.2511 112.488 27.3525 112.488 28.5458C112.488 29.739 112.763 30.9322 113.314 31.8501C113.865 32.8597 114.691 33.594 115.609 34.1447C116.618 34.6954 117.72 34.9708 119.005 34.9708C120.932 34.9708 122.584 34.2365 123.869 32.7679L126.072 34.879C125.246 35.8887 124.145 36.6229 122.951 37.1737C121.666 37.7244 120.29 37.9997 118.821 37.9997C116.985 37.9997 115.241 37.5408 113.773 36.7147Z" fill="white"/>
<path d="M132.497 36.7147C131.029 35.8887 129.835 34.7872 128.917 33.3186C128.091 31.8501 127.632 30.2897 127.632 28.454C127.632 26.71 128.091 25.0579 128.917 23.5893C129.744 22.1207 130.937 21.0193 132.497 20.1932C133.966 19.3671 135.71 19 137.545 19C139.381 19 141.125 19.3671 142.594 20.1932C144.062 21.0193 145.255 22.1207 146.173 23.5893C146.999 25.0579 147.458 26.6183 147.458 28.454C147.458 30.2897 146.999 31.8501 146.173 33.3186C145.347 34.7872 144.154 35.8887 142.594 36.7147C141.125 37.5408 139.381 37.9079 137.545 37.9079C135.618 37.9997 133.966 37.5408 132.497 36.7147ZM140.85 34.1447C141.859 33.594 142.594 32.8597 143.144 31.8501C143.695 30.8404 143.97 29.739 143.97 28.5458C143.97 27.3525 143.695 26.2511 143.144 25.2415C142.594 24.2318 141.859 23.4975 140.85 22.9468C139.84 22.3961 138.739 22.1207 137.545 22.1207C136.352 22.1207 135.251 22.3961 134.241 22.9468C133.231 23.4975 132.497 24.2318 131.946 25.2415C131.396 26.2511 131.12 27.3525 131.12 28.5458C131.12 29.739 131.396 30.8404 131.946 31.8501C132.497 32.8597 133.231 33.594 134.241 34.1447C135.251 34.6954 136.352 34.9708 137.545 34.9708C138.739 34.9708 139.84 34.6954 140.85 34.1447Z" fill="white"/>
<path d="M167.834 37.7254V25.6096L161.777 35.7061H160.216L154.158 25.7932V37.8172H150.946V19.46H153.791L161.042 31.5757L168.202 19.46H171.047V37.8172H167.834V37.7254Z" fill="white"/>
<path d="M187.752 20.1943C188.945 20.745 189.863 21.4793 190.506 22.4889C191.148 23.4986 191.423 24.6 191.423 25.9768C191.423 27.2618 191.148 28.455 190.506 29.4647C189.863 30.4743 188.945 31.2086 187.752 31.7593C186.559 32.31 185.182 32.5854 183.622 32.5854H179.491V37.909H176.095V19.5518H183.622C185.182 19.3682 186.559 19.6435 187.752 20.1943ZM186.742 28.6386C187.477 27.9961 187.936 27.0782 187.936 25.9768C187.936 24.7836 187.568 23.8657 186.742 23.315C186.008 22.6725 184.815 22.3971 183.346 22.3971H179.4V29.6482H183.346C184.907 29.5564 186.008 29.1893 186.742 28.6386Z" fill="white"/>
<path d="M205.743 33.5042H196.564L194.729 37.7264H191.241L199.501 19.3691H202.898L211.158 37.7264H207.579L205.743 33.5042ZM204.642 30.8424L201.154 22.857L197.758 30.8424H204.642Z" fill="white"/>
<path d="M229.79 19.3691V37.7264H226.944L216.848 25.3352V37.7264H213.452V19.3691H216.297L226.394 31.7603V19.3691H229.79Z" fill="white"/>
<path d="M242.641 31.2086V37.6336H239.245V31.2086L232.085 19.2764H235.757L241.08 28.1796L246.496 19.2764H249.892L242.641 31.2086Z" fill="white"/>
</g>
<defs>
<clipPath id="clip0_379_1074">
<rect width="259" height="61" fill="white"/>
</clipPath>
</defs>
</svg>
