<svg width="28" height="28" viewBox="0 0 28 28" fill="none" xmlns="http://www.w3.org/2000/svg">
<path fill-rule="evenodd" clip-rule="evenodd" d="M8.5522 2.33398H19.4477C23.4155 2.33398 25.6555 4.58448 25.6672 8.55232V19.449C25.6672 23.4157 23.4155 25.6673 19.4477 25.6673H8.5522C4.58436 25.6673 2.33386 23.4157 2.33386 19.449V8.55232C2.33386 4.58448 4.58436 2.33398 8.5522 2.33398ZM14.0577 20.8373C14.5605 20.8373 14.9793 20.464 15.026 19.9623V8.07398C15.0727 7.71231 14.8988 7.34947 14.5838 7.15231C14.256 6.95397 13.8593 6.95397 13.5455 7.15231C13.2293 7.34947 13.0555 7.71231 13.0893 8.07398V19.9623C13.1488 20.464 13.5677 20.8373 14.0577 20.8373ZM19.4255 20.8373C19.9155 20.8373 20.3343 20.464 20.3938 19.9623V16.1357C20.4277 15.7612 20.2538 15.4123 19.9377 15.214C19.6238 15.0157 19.2272 15.0157 18.9005 15.214C18.5843 15.4123 18.4105 15.7612 18.4572 16.1357V19.9623C18.5038 20.464 18.9227 20.8373 19.4255 20.8373ZM9.58936 19.9624C9.54269 20.464 9.12386 20.8374 8.62102 20.8374C8.11936 20.8374 7.69936 20.464 7.65386 19.9624V11.9007C7.61886 11.5379 7.79269 11.1774 8.10886 10.979C8.42269 10.7807 8.82052 10.7807 9.13552 10.979C9.44936 11.1774 9.62552 11.5379 9.58936 11.9007V19.9624Z" fill="#FEAD86"/>
</svg>
